<svg width="1200" height="980" viewBox="0 0 1200 980" fill="none" xmlns="http://www.w3.org/2000/svg" role="img" aria-label="Divergram dashboard illustration">
  <defs>
    <linearGradient id="bg" x1="130" y1="70" x2="1110" y2="930" gradientUnits="userSpaceOnUse">
      <stop stop-color="#121C3D"/>
      <stop offset="1" stop-color="#08101F"/>
    </linearGradient>
    <linearGradient id="glow" x1="175" y1="124" x2="1050" y2="860" gradientUnits="userSpaceOnUse">
      <stop stop-color="#0068FF" stop-opacity="0.8"/>
      <stop offset="1" stop-color="#00D4FF" stop-opacity="0.12"/>
    </linearGradient>
    <linearGradient id="panel" x1="176" y1="188" x2="1026" y2="845" gradientUnits="userSpaceOnUse">
      <stop stop-color="white" stop-opacity="0.14"/>
      <stop offset="1" stop-color="white" stop-opacity="0.05"/>
    </linearGradient>
    <linearGradient id="line" x1="291" y1="564" x2="918" y2="408" gradientUnits="userSpaceOnUse">
      <stop stop-color="#00D4FF"/>
      <stop offset="0.48" stop-color="#79B2FF"/>
      <stop offset="1" stop-color="#0068FF"/>
    </linearGradient>
    <filter id="shadow" x="-20%" y="-20%" width="140%" height="140%">
      <feDropShadow dx="0" dy="22" stdDeviation="22" flood-color="#00041A" flood-opacity="0.5"/>
    </filter>
  </defs>
  <rect x="10" y="10" width="1180" height="960" rx="56" fill="url(#bg)"/>
  <rect x="10" y="10" width="1180" height="960" rx="56" fill="url(#glow)" opacity="0.7"/>
  <g opacity="0.5">
    <circle cx="980" cy="162" r="88" fill="#00D4FF" fill-opacity="0.08"/>
    <circle cx="980" cy="162" r="50" fill="#00D4FF" fill-opacity="0.12"/>
    <circle cx="258" cy="206" r="66" fill="#0068FF" fill-opacity="0.14"/>
  </g>
  <rect x="82" y="78" width="1036" height="824" rx="42" fill="url(#panel)" stroke="white" stroke-opacity="0.08" filter="url(#shadow)"/>
  <rect x="120" y="118" width="960" height="80" rx="24" fill="white" fill-opacity="0.07" stroke="white" stroke-opacity="0.08"/>
  <circle cx="165" cy="158" r="10" fill="#FF5F57"/>
  <circle cx="197" cy="158" r="10" fill="#FEBB2E"/>
  <circle cx="229" cy="158" r="10" fill="#28C840"/>
  <rect x="276" y="140" width="252" height="36" rx="18" fill="#0B1020" fill-opacity="0.36" stroke="white" stroke-opacity="0.08"/>
  <rect x="127" y="230" width="540" height="542" rx="34" fill="white" fill-opacity="0.06" stroke="white" stroke-opacity="0.08"/>
  <rect x="706" y="230" width="374" height="170" rx="28" fill="white" fill-opacity="0.08" stroke="white" stroke-opacity="0.08"/>
  <rect x="706" y="424" width="374" height="348" rx="28" fill="white" fill-opacity="0.06" stroke="white" stroke-opacity="0.08"/>
  <g opacity="0.88">
    <rect x="160" y="278" width="208" height="104" rx="24" fill="#06112B" fill-opacity="0.72" stroke="white" stroke-opacity="0.08"/>
    <rect x="392" y="278" width="236" height="104" rx="24" fill="#06112B" fill-opacity="0.72" stroke="white" stroke-opacity="0.08"/>
    <rect x="160" y="410" width="232" height="140" rx="24" fill="#06112B" fill-opacity="0.72" stroke="white" stroke-opacity="0.08"/>
    <rect x="420" y="410" width="208" height="140" rx="24" fill="#06112B" fill-opacity="0.72" stroke="white" stroke-opacity="0.08"/>
    <rect x="160" y="578" width="468" height="168" rx="24" fill="#06112B" fill-opacity="0.72" stroke="white" stroke-opacity="0.08"/>
  </g>
  <g opacity="0.9">
    <path d="M180 338L224 314L274 326L318 300L354 314" stroke="url(#line)" stroke-width="8" stroke-linecap="round" stroke-linejoin="round"/>
    <path d="M180 338L224 314L274 326L318 300L354 314" stroke="white" stroke-opacity="0.1" stroke-width="18" stroke-linecap="round" stroke-linejoin="round"/>
    <path d="M205 468H330" stroke="#00D4FF" stroke-width="10" stroke-linecap="round"/>
    <path d="M205 502H292" stroke="white" stroke-opacity="0.55" stroke-width="10" stroke-linecap="round"/>
    <path d="M205 612H470" stroke="white" stroke-opacity="0.14" stroke-width="10" stroke-linecap="round"/>
    <path d="M205 652H410" stroke="white" stroke-opacity="0.2" stroke-width="10" stroke-linecap="round"/>
    <path d="M205 692H522" stroke="white" stroke-opacity="0.08" stroke-width="10" stroke-linecap="round"/>
  </g>
  <g>
    <rect x="730" y="254" width="324" height="26" rx="13" fill="white" fill-opacity="0.14"/>
    <rect x="730" y="296" width="214" height="18" rx="9" fill="white" fill-opacity="0.12"/>
    <rect x="730" y="330" width="278" height="18" rx="9" fill="white" fill-opacity="0.08"/>
    <rect x="730" y="468" width="324" height="210" rx="22" fill="#08101F" fill-opacity="0.7" stroke="white" stroke-opacity="0.06"/>
    <path d="M758 634L808 562L860 586L912 498L968 540L1040 448" stroke="url(#line)" stroke-width="7" stroke-linecap="round" stroke-linejoin="round"/>
    <circle cx="808" cy="562" r="10" fill="#00D4FF"/>
    <circle cx="860" cy="586" r="10" fill="#6FB2FF"/>
    <circle cx="912" cy="498" r="10" fill="#0068FF"/>
    <circle cx="968" cy="540" r="10" fill="#00D4FF"/>
  </g>
  <g filter="url(#shadow)">
    <rect x="880" y="130" width="170" height="110" rx="28" fill="#08101F" fill-opacity="0.9" stroke="white" stroke-opacity="0.08"/>
    <rect x="108" y="820" width="210" height="84" rx="24" fill="#08101F" fill-opacity="0.9" stroke="white" stroke-opacity="0.08"/>
  </g>
  <g>
    <text x="912" y="176" fill="white" fill-opacity="0.92" font-size="18" font-family="Arial, sans-serif">99.9%</text>
    <text x="912" y="202" fill="white" fill-opacity="0.62" font-size="13" font-family="Arial, sans-serif">API success</text>
    <text x="145" y="852" fill="white" fill-opacity="0.92" font-size="22" font-family="Arial, sans-serif">1M+ requests</text>
    <text x="145" y="880" fill="white" fill-opacity="0.58" font-size="14" font-family="Arial, sans-serif">Processed with verification flow</text>
  </g>
  <circle cx="1044" cy="230" r="12" fill="#00D4FF" fill-opacity="0.9"/>
  <circle cx="1020" cy="255" r="7" fill="white" fill-opacity="0.7"/>
  <circle cx="110" cy="260" r="8" fill="#00D4FF" fill-opacity="0.8"/>
  <circle cx="123" cy="246" r="4" fill="white" fill-opacity="0.64"/>
</svg>
